<svg width="15" height="11" viewBox="0 0 15 11" fill="none" xmlns="http://www.w3.org/2000/svg">
<path d="M0.568359 5.40234C0.568359 5.40234 0.623047 5.30208 0.732422 5.10156C0.841797 4.89193 1.0013 4.63672 1.21094 4.33594C1.34766 4.14453 1.49805 3.93945 1.66211 3.7207C1.83529 3.49284 2.02669 3.26497 2.23633 3.03711C2.50065 2.75456 2.79232 2.47201 3.11133 2.18945C3.43945 1.9069 3.79492 1.64714 4.17773 1.41016C4.64258 1.11849 5.15299 0.88151 5.70898 0.699219C6.26497 0.507812 6.86198 0.412109 7.5 0.412109C8.13802 0.412109 8.73503 0.507812 9.29102 0.699219C9.84701 0.88151 10.3574 1.11849 10.8223 1.41016C11.2051 1.64714 11.556 1.9069 11.875 2.18945C12.2031 2.47201 12.4993 2.75456 12.7637 3.03711C12.9733 3.26497 13.1602 3.49284 13.3242 3.7207C13.4974 3.93945 13.6523 4.14453 13.7891 4.33594C13.9987 4.63672 14.1582 4.89193 14.2676 5.10156C14.377 5.30208 14.4316 5.40234 14.4316 5.40234C14.4772 5.49349 14.5 5.58464 14.5 5.67578C14.5 5.76693 14.4772 5.84896 14.4316 5.92188C14.4316 5.92188 14.377 6.02669 14.2676 6.23633C14.1582 6.43685 13.9987 6.69206 13.7891 7.00195C13.6523 7.19336 13.4974 7.40299 13.3242 7.63086C13.1602 7.84961 12.9733 8.07292 12.7637 8.30078C12.4993 8.58333 12.2031 8.86589 11.875 9.14844C11.556 9.43099 11.2051 9.69076 10.8223 9.92773C10.3574 10.2194 9.84701 10.4564 9.29102 10.6387C8.73503 10.821 8.13802 10.9121 7.5 10.9121C6.86198 10.9121 6.26497 10.821 5.70898 10.6387C5.15299 10.4564 4.64258 10.2194 4.17773 9.92773C3.79492 9.69076 3.43945 9.43099 3.11133 9.14844C2.79232 8.86589 2.50065 8.58333 2.23633 8.30078C2.02669 8.07292 1.83529 7.84961 1.66211 7.63086C1.49805 7.40299 1.34766 7.19336 1.21094 7.00195C1.0013 6.69206 0.841797 6.43685 0.732422 6.23633C0.623047 6.02669 0.568359 5.92188 0.568359 5.92188C0.522786 5.83984 0.5 5.75326 0.5 5.66211C0.5 5.57096 0.522786 5.48438 0.568359 5.40234ZM1.74414 5.66211C1.79883 5.74414 1.85807 5.8444 1.92188 5.96289C1.99479 6.07227 2.08138 6.19987 2.18164 6.3457C2.30013 6.51888 2.43685 6.70573 2.5918 6.90625C2.74674 7.10677 2.91536 7.30729 3.09766 7.50781C3.33464 7.76302 3.5944 8.01367 3.87695 8.25977C4.15951 8.50586 4.46484 8.73372 4.79297 8.94336C5.1849 9.18034 5.60417 9.3763 6.05078 9.53125C6.50651 9.67708 6.98958 9.75 7.5 9.75C8.01042 9.75 8.48893 9.67708 8.93555 9.53125C9.39128 9.3763 9.8151 9.18034 10.207 8.94336C10.5352 8.73372 10.8405 8.50586 11.123 8.25977C11.4056 8.01367 11.6654 7.76302 11.9023 7.50781C12.0846 7.30729 12.2533 7.10677 12.4082 6.90625C12.5632 6.70573 12.6999 6.51888 12.8184 6.3457C12.9186 6.19987 13.0007 6.07227 13.0645 5.96289C13.1374 5.8444 13.2012 5.74414 13.2559 5.66211C13.2012 5.58008 13.1374 5.48438 13.0645 5.375C13.0007 5.25651 12.9186 5.12891 12.8184 4.99219C12.6999 4.81901 12.5632 4.63216 12.4082 4.43164C12.2533 4.23112 12.0846 4.0306 11.9023 3.83008C11.6654 3.56576 11.4056 3.31055 11.123 3.06445C10.8405 2.81836 10.5352 2.59505 10.207 2.39453C9.8151 2.14844 9.39128 1.95247 8.93555 1.80664C8.48893 1.66081 8.01042 1.58789 7.5 1.58789C6.98958 1.58789 6.50651 1.66081 6.05078 1.80664C5.60417 1.95247 5.1849 2.14844 4.79297 2.39453C4.46484 2.59505 4.15951 2.81836 3.87695 3.06445C3.5944 3.31055 3.33464 3.56576 3.09766 3.83008C2.91536 4.0306 2.74674 4.23112 2.5918 4.43164C2.43685 4.63216 2.30013 4.81901 2.18164 4.99219C2.08138 5.12891 1.99479 5.25651 1.92188 5.375C1.85807 5.48438 1.79883 5.58008 1.74414 5.66211ZM9.83789 5.66211C9.83789 5.99023 9.77409 6.29557 9.64648 6.57812C9.52799 6.86068 9.36393 7.10677 9.1543 7.31641C8.94466 7.52604 8.69401 7.69466 8.40234 7.82227C8.11979 7.94076 7.81901 8 7.5 8C7.18099 8 6.87565 7.94076 6.58398 7.82227C6.30143 7.69466 6.05534 7.52604 5.8457 7.31641C5.63607 7.10677 5.46745 6.86068 5.33984 6.57812C5.22135 6.29557 5.16211 5.99023 5.16211 5.66211C5.16211 5.3431 5.22135 5.04232 5.33984 4.75977C5.46745 4.47721 5.63607 4.23112 5.8457 4.02148C6.05534 3.81185 6.30143 3.64779 6.58398 3.5293C6.87565 3.40169 7.18099 3.33789 7.5 3.33789C7.81901 3.33789 8.11979 3.40169 8.40234 3.5293C8.69401 3.64779 8.94466 3.81185 9.1543 4.02148C9.36393 4.23112 9.52799 4.47721 9.64648 4.75977C9.77409 5.04232 9.83789 5.3431 9.83789 5.66211ZM8.66211 5.66211C8.66211 5.50716 8.63021 5.36133 8.56641 5.22461C8.51172 5.07878 8.42969 4.95117 8.32031 4.8418C8.22005 4.73242 8.09701 4.65039 7.95117 4.5957C7.81445 4.5319 7.66406 4.5 7.5 4.5C7.33594 4.5 7.18099 4.5319 7.03516 4.5957C6.89844 4.65039 6.77995 4.73242 6.67969 4.8418C6.57031 4.95117 6.48372 5.07878 6.41992 5.22461C6.36523 5.36133 6.33789 5.50716 6.33789 5.66211C6.33789 5.82617 6.36523 5.98112 6.41992 6.12695C6.48372 6.26367 6.57031 6.38672 6.67969 6.49609C6.77995 6.59635 6.89844 6.67839 7.03516 6.74219C7.18099 6.80599 7.33594 6.83789 7.5 6.83789C7.66406 6.83789 7.81445 6.80599 7.95117 6.74219C8.09701 6.67839 8.22005 6.59635 8.32031 6.49609C8.42969 6.38672 8.51172 6.26367 8.56641 6.12695C8.63021 5.98112 8.66211 5.82617 8.66211 5.66211Z" fill="#111111"/>
</svg>
