<svg width="15" height="13" viewBox="0 0 15 13" fill="none" xmlns="http://www.w3.org/2000/svg">
<path d="M12.2441 2.76562C11.9889 2.51042 11.6973 2.31901 11.3691 2.19141C11.0501 2.0638 10.722 2 10.3848 2C10.0475 2 9.7194 2.0638 9.40039 2.19141C9.08138 2.31901 8.78971 2.51042 8.52539 2.76562L7.91016 3.38086C7.80078 3.49935 7.66406 3.55859 7.5 3.55859C7.33594 3.55859 7.19922 3.49935 7.08984 3.38086L6.47461 2.76562C6.21029 2.51042 5.91862 2.31901 5.59961 2.19141C5.2806 2.0638 4.95247 2 4.61523 2C4.27799 2 3.94531 2.0638 3.61719 2.19141C3.29818 2.31901 3.01107 2.51042 2.75586 2.76562C2.50065 3.02083 2.30924 3.3125 2.18164 3.64062C2.05404 3.95964 1.99023 4.28776 1.99023 4.625C1.99023 4.96224 2.05404 5.29492 2.18164 5.62305C2.30924 5.94206 2.50065 6.22917 2.75586 6.48438L7.5 11.2285L12.2441 6.48438C12.4993 6.22917 12.6908 5.94206 12.8184 5.62305C12.946 5.29492 13.0098 4.96224 13.0098 4.625C13.0098 4.28776 12.946 3.95964 12.8184 3.64062C12.6908 3.3125 12.4993 3.02083 12.2441 2.76562ZM13.0645 1.94531C13.4382 2.31901 13.7161 2.73828 13.8984 3.20312C14.0898 3.66797 14.1855 4.14193 14.1855 4.625C14.1855 5.10807 14.0898 5.58659 13.8984 6.06055C13.7161 6.52539 13.4382 6.9401 13.0645 7.30469L7.91016 12.459C7.80078 12.5775 7.66406 12.6367 7.5 12.6367C7.33594 12.6367 7.19922 12.5775 7.08984 12.459L1.93555 7.30469C1.56185 6.9401 1.2793 6.52539 1.08789 6.06055C0.905599 5.58659 0.814453 5.10807 0.814453 4.625C0.814453 4.14193 0.905599 3.66797 1.08789 3.20312C1.2793 2.72917 1.56185 2.3099 1.93555 1.94531C2.30013 1.57161 2.71484 1.29362 3.17969 1.11133C3.65365 0.929036 4.13216 0.837891 4.61523 0.837891C5.09831 0.837891 5.57227 0.929036 6.03711 1.11133C6.50195 1.29362 6.92122 1.57161 7.29492 1.94531L7.5 2.15039L7.70508 1.94531C8.07878 1.57161 8.49805 1.29362 8.96289 1.11133C9.42773 0.929036 9.90169 0.837891 10.3848 0.837891C10.8678 0.837891 11.3418 0.929036 11.8066 1.11133C12.2806 1.29362 12.6999 1.57161 13.0645 1.94531Z" fill="#111111"/>
</svg>
