<svg width="12" height="11" viewBox="0 0 12 11" fill="none" xmlns="http://www.w3.org/2000/svg">
<path d="M10.9707 4.46289C11.0033 4.56055 11.0065 4.66146 10.9805 4.76562C10.9544 4.86979 10.8991 4.95768 10.8145 5.0293L8.63672 6.94336L9.28125 9.77539C9.30078 9.87956 9.29102 9.98047 9.25195 10.0781C9.2194 10.1758 9.16081 10.2572 9.07617 10.3223C8.98503 10.3874 8.88737 10.4199 8.7832 10.4199C8.67904 10.4264 8.58138 10.4036 8.49023 10.3516L6 8.85742L3.50977 10.3516C3.4707 10.3711 3.42513 10.3874 3.37305 10.4004C3.32747 10.4134 3.2819 10.4199 3.23633 10.4199C3.18424 10.4199 3.12891 10.4102 3.07031 10.3906C3.01823 10.3776 2.9694 10.3548 2.92383 10.3223C2.83919 10.2572 2.77734 10.1758 2.73828 10.0781C2.70573 9.98047 2.69922 9.87956 2.71875 9.77539L3.36328 6.94336L1.18555 5.0293C1.10091 4.95768 1.04557 4.86979 1.01953 4.76562C0.99349 4.66146 0.996745 4.56055 1.0293 4.46289C1.06185 4.35872 1.11719 4.27409 1.19531 4.20898C1.27995 4.14388 1.37435 4.10482 1.47852 4.0918L4.36914 3.83789L5.51172 1.16211C5.55078 1.06445 5.61589 0.986328 5.70703 0.927734C5.79818 0.869141 5.89583 0.839844 6 0.839844C6.10417 0.839844 6.20182 0.869141 6.29297 0.927734C6.38411 0.986328 6.44922 1.06445 6.48828 1.16211L7.63086 3.83789L10.5215 4.0918C10.6257 4.10482 10.7168 4.14388 10.7949 4.20898C10.8796 4.27409 10.9382 4.35872 10.9707 4.46289Z" fill="#C8C8C8"/>
</svg>
