<svg width="8" height="11" viewBox="0 0 8 11" fill="none" xmlns="http://www.w3.org/2000/svg">
<path d="M2.27754 10.7214L6.77754 6.22144C6.92988 6.08081 7.00605 5.91089 7.00605 5.71167C7.00605 5.50073 6.92988 5.31909 6.77754 5.16675L2.27754 0.666748C2.13691 0.526123 1.96113 0.455811 1.75019 0.455811C1.53926 0.455811 1.36348 0.526123 1.22285 0.666748C1.07051 0.819092 0.994335 1.00073 0.994335 1.21167C0.994335 1.41089 1.07051 1.58081 1.22285 1.72144L5.19551 5.69409L1.22285 9.66675C1.07051 9.81909 0.994335 10.0007 0.994335 10.2117C0.994335 10.4109 1.07051 10.5808 1.22285 10.7214C1.36348 10.8738 1.53926 10.95 1.75019 10.95C1.96113 10.95 2.13691 10.8738 2.27754 10.7214Z" fill="#111111"/>
</svg>
