<svg width="13" height="14" viewBox="0 0 13 14" fill="none" xmlns="http://www.w3.org/2000/svg">
<path d="M6.5 1.48047L1.97461 3.75L6.5 6.01953L11.0254 3.75L6.5 1.48047ZM6.24023 0.318359V0.304688C6.32227 0.268229 6.40885 0.25 6.5 0.25C6.59115 0.25 6.67773 0.268229 6.75977 0.304688L12.5977 3.23047C12.6523 3.25781 12.7025 3.29427 12.748 3.33984C12.7936 3.3763 12.8301 3.42643 12.8574 3.49023C12.9303 3.63607 12.9395 3.78646 12.8848 3.94141C12.8392 4.08724 12.7435 4.19661 12.5977 4.26953L6.75977 7.18164C6.67773 7.22721 6.59115 7.25 6.5 7.25C6.40885 7.25 6.32227 7.22721 6.24023 7.18164L0.402344 4.26953C0.347656 4.24219 0.297526 4.21029 0.251953 4.17383C0.20638 4.12826 0.169922 4.07357 0.142578 4.00977C0.0696615 3.86393 0.0559896 3.7181 0.101562 3.57227C0.15625 3.41732 0.25651 3.30339 0.402344 3.23047L6.24023 0.318359ZM0.402344 10.1074C0.25651 10.0345 0.15625 9.92057 0.101562 9.76562C0.0559896 9.61068 0.0696615 9.46484 0.142578 9.32812C0.215495 9.18229 0.329427 9.08659 0.484375 9.04102C0.639323 8.98633 0.785156 8.99544 0.921875 9.06836L6.5 11.8438L12.0781 9.05469C12.2148 8.99089 12.3607 8.98633 12.5156 9.04102C12.6706 9.08659 12.7845 9.18229 12.8574 9.32812C12.9303 9.46484 12.9395 9.61068 12.8848 9.76562C12.8392 9.92057 12.7435 10.0345 12.5977 10.1074L6.75977 13.0195C6.67773 13.056 6.59115 13.0742 6.5 13.0742C6.40885 13.0833 6.32227 13.0651 6.24023 13.0195L0.402344 10.1074ZM0.402344 7.18164V7.19531C0.25651 7.1224 0.15625 7.00846 0.101562 6.85352C0.0559896 6.69857 0.0696615 6.54818 0.142578 6.40234C0.215495 6.25651 0.329427 6.16081 0.484375 6.11523C0.639323 6.06055 0.785156 6.06966 0.921875 6.14258L6.5 8.93164L12.0781 6.14258C12.2148 6.06966 12.3607 6.06055 12.5156 6.11523C12.6706 6.16081 12.7845 6.25651 12.8574 6.40234C12.9303 6.54818 12.9395 6.69857 12.8848 6.85352C12.8392 7.00846 12.7435 7.11784 12.5977 7.18164L6.75977 10.1074C6.67773 10.1439 6.59115 10.1621 6.5 10.1621C6.40885 10.1621 6.32227 10.1439 6.24023 10.1074L0.402344 7.18164Z" fill="#111111"/>
</svg>
